<svg width="48" height="48" viewBox="0 0 48 48" fill="none" xmlns="http://www.w3.org/2000/svg">
<path d="M23.9913 38.85C23.3304 38.85 22.775 38.6229 22.325 38.1688C21.875 37.7146 21.65 37.1583 21.65 36.5V26.35H11.5C10.8417 26.35 10.2854 26.1221 9.83127 25.6663C9.37711 25.2104 9.15002 24.6521 9.15002 23.9913C9.15002 23.3304 9.37711 22.775 9.83127 22.325C10.2854 21.875 10.8417 21.65 11.5 21.65H21.65V11.5C21.65 10.8417 21.8779 10.2854 22.3338 9.83125C22.7896 9.37708 23.348 9.15 24.0088 9.15C24.6696 9.15 25.225 9.37708 25.675 9.83125C26.125 10.2854 26.35 10.8417 26.35 11.5V21.65H36.5C37.1584 21.65 37.7146 21.8779 38.1688 22.3338C38.6229 22.7896 38.85 23.348 38.85 24.0088C38.85 24.6696 38.6229 25.225 38.1688 25.675C37.7146 26.125 37.1584 26.35 36.5 26.35H26.35V36.5C26.35 37.1583 26.1221 37.7146 25.6663 38.1688C25.2104 38.6229 24.6521 38.85 23.9913 38.85Z" fill="#402525"/>
</svg>
