<svg width="48" height="49" viewBox="0 0 48 49" fill="none" xmlns="http://www.w3.org/2000/svg">
<path d="M39 27.5C40.3807 27.5 41.5 26.3807 41.5 25C41.5 23.6193 40.3807 22.5 39 22.5L39 27.5ZM7.23223 23.2322C6.25592 24.2085 6.25592 25.7915 7.23223 26.7678L23.1421 42.6777C24.1184 43.654 25.7014 43.654 26.6777 42.6777C27.654 41.7014 27.654 40.1184 26.6777 39.1421L12.5355 25L26.6777 10.8579C27.654 9.88155 27.654 8.29864 26.6777 7.32233C25.7014 6.34602 24.1184 6.34602 23.1421 7.32233L7.23223 23.2322ZM39 22.5L9 22.5L9 27.5L39 27.5L39 22.5Z" fill="#402525"/>
</svg>
