<svg width="48" height="48" viewBox="0 0 48 48" fill="none" xmlns="http://www.w3.org/2000/svg">
<path d="M15.45 17.25C15.9633 17.25 16.3917 17.0783 16.735 16.735C17.0783 16.3916 17.25 15.9633 17.25 15.45C17.25 14.9366 17.0783 14.5083 16.735 14.165C16.3917 13.8216 15.9633 13.65 15.45 13.65C14.9367 13.65 14.5083 13.8216 14.165 14.165C13.8217 14.5083 13.65 14.9366 13.65 15.45C13.65 15.9633 13.8217 16.3916 14.165 16.735C14.5083 17.0783 14.9367 17.25 15.45 17.25ZM15.45 25.8C15.9633 25.8 16.3917 25.6283 16.735 25.285C17.0783 24.9416 17.25 24.5133 17.25 24C17.25 23.4866 17.0783 23.0583 16.735 22.715C16.3917 22.3716 15.9633 22.2 15.45 22.2C14.9367 22.2 14.5083 22.3716 14.165 22.715C13.8217 23.0583 13.65 23.4866 13.65 24C13.65 24.5133 13.8217 24.9416 14.165 25.285C14.5083 25.6283 14.9367 25.8 15.45 25.8ZM15.45 34.35C15.9633 34.35 16.3917 34.1783 16.735 33.835C17.0783 33.4916 17.25 33.0633 17.25 32.55C17.25 32.0366 17.0783 31.6083 16.735 31.265C16.3917 30.9216 15.9633 30.75 15.45 30.75C14.9367 30.75 14.5083 30.9216 14.165 31.265C13.8217 31.6083 13.65 32.0366 13.65 32.55C13.65 33.0633 13.8217 33.4916 14.165 33.835C14.5083 34.1783 14.9367 34.35 15.45 34.35ZM9.45 43.25C8.14833 43.25 7.03958 42.792 6.12375 41.8762C5.20792 40.9604 4.75 39.8516 4.75 38.55V9.44995C4.75 8.13452 5.20792 7.014 6.12375 6.0884C7.03958 5.16277 8.14833 4.69995 9.45 4.69995H30.15C30.79 4.69995 31.4 4.83328 31.98 5.09995C32.56 5.36662 33.0833 5.71662 33.55 6.14995L41.85 14.45C42.2833 14.9166 42.6333 15.44 42.9 16.02C43.1667 16.6 43.3 17.21 43.3 17.85V38.55C43.3 39.8516 42.8372 40.9604 41.9116 41.8762C40.986 42.792 39.8654 43.25 38.55 43.25H9.45ZM9.45 38.55H38.55V18.6H31.75C31.0917 18.6 30.5354 18.3729 30.0813 17.9187C29.6271 17.4645 29.4 16.9083 29.4 16.25V9.44995H9.45V38.55Z" fill="#402525"/>
</svg>
