<svg width="48" height="48" viewBox="0 0 48 48" fill="none" xmlns="http://www.w3.org/2000/svg">
<path d="M27.5501 25.85C25.8834 25.85 24.4668 25.2666 23.3001 24.1C22.1334 22.9333 21.5501 21.5166 21.5501 19.85C21.5501 18.1833 22.1334 16.7666 23.3001 15.6C24.4668 14.4333 25.8834 13.85 27.5501 13.85C29.2168 13.85 30.6334 14.4333 31.8001 15.6C32.9668 16.7666 33.5501 18.1833 33.5501 19.85C33.5501 21.5166 32.9668 22.9333 31.8001 24.1C30.6334 25.2666 29.2168 25.85 27.5501 25.85ZM12.7501 34C11.4259 34 10.3032 33.5393 9.38195 32.6181C8.46071 31.6968 8.0001 30.5741 8.0001 29.25V10.45C8.0001 9.14368 8.46071 8.02545 9.38195 7.09525C10.3032 6.16505 11.4259 5.69995 12.7501 5.69995H42.4501C43.7426 5.69995 44.849 6.16505 45.7695 7.09525C46.6899 8.02545 47.1501 9.14368 47.1501 10.45V29.25C47.1501 30.5741 46.6899 31.6968 45.7695 32.6181C44.849 33.5393 43.7426 34 42.4501 34H12.7501ZM17.1501 29.85H38.0001C38.0001 28.45 38.4834 27.2666 39.4501 26.3C40.4168 25.3333 41.6001 24.85 43.0001 24.85V14.85C41.6001 14.85 40.4168 14.3583 39.4501 13.375C38.4834 12.3916 38.0001 11.2166 38.0001 9.84995H17.1501C17.1501 11.2166 16.6668 12.3916 15.7001 13.375C14.7334 14.3583 13.5501 14.85 12.1501 14.85V24.85C13.5501 24.85 14.7334 25.3333 15.7001 26.3C16.6668 27.2666 17.1501 28.45 17.1501 29.85ZM5.5501 41.15C4.2576 41.15 3.15113 40.6898 2.2307 39.7694C1.3103 38.8489 0.850098 37.7425 0.850098 36.45V16.35C0.850098 15.6916 1.07801 15.1354 1.53385 14.6812C1.98971 14.227 2.54805 14 3.20885 14C3.86968 14 4.4251 14.227 4.8751 14.6812C5.3251 15.1354 5.5501 15.6916 5.5501 16.35V36.45H37.6501C38.3084 36.45 38.8647 36.6779 39.3188 37.1337C39.773 37.5896 40.0001 38.1479 40.0001 38.8087C40.0001 39.4695 39.773 40.025 39.3188 40.475C38.8647 40.925 38.3084 41.15 37.6501 41.15H5.5501Z" fill="#402525"/>
</svg>
