<svg width="48" height="49" viewBox="0 0 48 49" fill="none" xmlns="http://www.w3.org/2000/svg">
<path d="M11.7 38.95H17.9V26.05H30.6V38.95H36.8V20.1L24.25 10.7L11.7 20.1167V38.95ZM11.7 43.65C10.4075 43.65 9.30103 43.1898 8.3806 42.2694C7.4602 41.349 7 40.2425 7 38.95V20.1C7 19.3621 7.16458 18.6631 7.49375 18.0029C7.82292 17.3426 8.29167 16.7917 8.9 16.35L21.4 6.95C21.8432 6.65 22.3086 6.41667 22.7962 6.25C23.2838 6.08333 23.7731 6 24.2639 6C24.7546 6 25.2402 6.08333 25.7207 6.25C26.2012 6.41667 26.661 6.65 27.1 6.95L39.6 16.35C40.2052 16.8036 40.6815 17.3587 41.0289 18.0151C41.3763 18.6714 41.55 19.3664 41.55 20.1V38.95C41.55 40.2425 41.0849 41.349 40.1547 42.2694C39.2245 43.1898 38.1063 43.65 36.8 43.65H26.45V30.2H22.05V43.65H11.7Z" fill="#402525"/>
</svg>
