<svg width="48" height="48" viewBox="0 0 48 48" fill="none" xmlns="http://www.w3.org/2000/svg">
<path d="M7.50002 37.4C6.84169 37.4 6.28544 37.1721 5.83127 36.7163C5.37711 36.2604 5.15002 35.7021 5.15002 35.0413C5.15002 34.3804 5.37711 33.825 5.83127 33.375C6.28544 32.925 6.84169 32.7 7.50002 32.7H40.5C41.1584 32.7 41.7146 32.9279 42.1688 33.3838C42.6229 33.8396 42.85 34.398 42.85 35.0588C42.85 35.7196 42.6229 36.275 42.1688 36.725C41.7146 37.175 41.1584 37.4 40.5 37.4H7.50002ZM7.50002 26.35C6.84169 26.35 6.28544 26.1221 5.83127 25.6663C5.37711 25.2104 5.15002 24.6521 5.15002 23.9913C5.15002 23.3304 5.37711 22.775 5.83127 22.325C6.28544 21.875 6.84169 21.65 7.50002 21.65H40.5C41.1584 21.65 41.7146 21.8779 42.1688 22.3338C42.6229 22.7896 42.85 23.348 42.85 24.0088C42.85 24.6696 42.6229 25.225 42.1688 25.675C41.7146 26.125 41.1584 26.35 40.5 26.35H7.50002ZM7.50002 15.3C6.84169 15.3 6.28544 15.0721 5.83127 14.6163C5.37711 14.1604 5.15002 13.6021 5.15002 12.9413C5.15002 12.2804 5.37711 11.7167 5.83127 11.25C6.28544 10.7833 6.84169 10.55 7.50002 10.55H40.5C41.1584 10.55 41.7146 10.7863 42.1688 11.2588C42.6229 11.7313 42.85 12.298 42.85 12.9588C42.85 13.6196 42.6229 14.175 42.1688 14.625C41.7146 15.075 41.1584 15.3 40.5 15.3H7.50002Z" fill="#402525"/>
</svg>
