<svg width="39" height="39" viewBox="0 0 39 39" fill="none" xmlns="http://www.w3.org/2000/svg">
<path d="M4.7 38.55C3.39833 38.55 2.28958 38.0921 1.37375 37.1763C0.457917 36.2604 0 35.1517 0 33.85V4.75C0 3.43457 0.457917 2.31405 1.37375 1.38845C2.28958 0.462816 3.39833 0 4.7 0H33.8C35.1154 0 36.236 0.462816 37.1616 1.38845C38.0872 2.31405 38.55 3.43457 38.55 4.75V33.85C38.55 35.1517 38.0872 36.2604 37.1616 37.1763C36.236 38.0921 35.1154 38.55 33.8 38.55H4.7ZM4.7 33.85H33.8V4.75H4.7V33.85ZM8.7 29.9H29.85C30.35 29.9 30.7 29.6896 30.9 29.2688C31.1 28.8479 31.0667 28.425 30.8 28L25.1 20.2C24.8564 19.9 24.5372 19.7417 24.1423 19.725C23.7474 19.7083 23.4333 19.8667 23.2 20.2L17.55 27.45L13.9 22.4C13.6231 22.0667 13.2872 21.9083 12.8923 21.925C12.4974 21.9417 12.1833 22.1 11.95 22.4L7.8 28C7.5 28.425 7.45 28.8479 7.65 29.2688C7.85 29.6896 8.2 29.9 8.7 29.9Z" fill="#23E688"/>
</svg>
