<svg width="48" height="48" viewBox="0 0 48 48" fill="none" xmlns="http://www.w3.org/2000/svg">
<path d="M24.1501 42.55C23.6167 42.55 23.1834 42.3916 22.8501 42.075C22.5167 41.7583 22.3501 41.3333 22.3501 40.8V38.25C20.6167 37.95 19.1751 37.3416 18.0251 36.425C16.8751 35.5083 15.9667 34.3666 15.3001 33C15.0667 32.5 15.0834 31.975 15.3501 31.425C15.6167 30.875 16.0334 30.4833 16.6001 30.25C17.0667 30.0833 17.5501 30.1 18.0501 30.3C18.5501 30.5 18.9834 30.8666 19.3501 31.4C19.9167 32.4 20.6501 33.1333 21.5501 33.6C22.4501 34.0666 23.4167 34.3 24.4501 34.3C25.9501 34.3 27.1417 33.9583 28.0251 33.275C28.9084 32.5916 29.3501 31.6666 29.3501 30.5C29.3501 29.2 28.8834 28.1583 27.9501 27.375C27.0167 26.5916 25.3001 25.8166 22.8001 25.05C20.4667 24.35 18.6917 23.3083 17.4751 21.925C16.2584 20.5416 15.6501 18.85 15.6501 16.85C15.6501 15.1166 16.2001 13.575 17.3001 12.225C18.4001 10.875 20.0834 10.0333 22.3501 9.69995V7.19995C22.3501 6.66662 22.5167 6.24162 22.8501 5.92495C23.1834 5.60828 23.6167 5.44995 24.1501 5.44995C24.6501 5.44995 25.0667 5.60828 25.4001 5.92495C25.7334 6.24162 25.9001 6.66662 25.9001 7.19995V9.69995C27.0667 9.93328 28.1584 10.3333 29.1751 10.9C30.1917 11.4666 31.0334 12.2333 31.7001 13.2C32.0001 13.6666 32.0501 14.1666 31.8501 14.7C31.6501 15.2333 31.2667 15.6166 30.7001 15.85C30.2667 16.05 29.8001 16.075 29.3001 15.925C28.8001 15.775 28.3001 15.4666 27.8001 15C27.3667 14.5333 26.8334 14.175 26.2001 13.925C25.5667 13.675 24.8501 13.55 24.0501 13.55C22.6834 13.55 21.6334 13.825 20.9001 14.375C20.1667 14.925 19.8001 15.7 19.8001 16.7C19.8001 17.7666 20.2001 18.6583 21.0001 19.375C21.8001 20.0916 23.6167 20.8833 26.4501 21.75C28.7834 22.5166 30.5417 23.5916 31.7251 24.975C32.9084 26.3583 33.5001 28.1333 33.5001 30.3C33.5001 32.5 32.8584 34.2833 31.5751 35.65C30.2917 37.0166 28.4001 37.9 25.9001 38.3V40.8C25.9001 41.3333 25.7334 41.7583 25.4001 42.075C25.0667 42.3916 24.6501 42.55 24.1501 42.55Z" fill="#402525"/>
</svg>
