<svg width="36" height="36" viewBox="0 0 36 36" fill="none" xmlns="http://www.w3.org/2000/svg">
<path d="M29.85 31.4625L19.9875 21.6C19.2375 22.25 18.363 22.7563 17.364 23.1188C16.3651 23.4813 15.3021 23.6625 14.175 23.6625C11.471 23.6625 9.18244 22.725 7.30946 20.85C5.43649 18.975 4.5 16.7125 4.5 14.0625C4.5 11.4125 5.4375 9.15 7.3125 7.275C9.1875 5.4 11.4563 4.4625 14.1188 4.4625C16.7813 4.4625 19.0438 5.4 20.9062 7.275C22.7688 9.15 23.7 11.4144 23.7 14.0681C23.7 15.1394 23.525 16.175 23.175 17.175C22.825 18.175 22.3 19.1125 21.6 19.9875L31.5 29.8125L29.85 31.4625ZM14.1375 21.4125C16.1688 21.4125 17.8953 20.6938 19.3172 19.2563C20.7391 17.8188 21.45 16.0875 21.45 14.0625C21.45 12.0375 20.7391 10.3063 19.3172 8.86875C17.8953 7.43125 16.1688 6.7125 14.1375 6.7125C12.0854 6.7125 10.3411 7.43125 8.90468 8.86875C7.46822 10.3063 6.75 12.0375 6.75 14.0625C6.75 16.0875 7.46822 17.8188 8.90468 19.2563C10.3411 20.6938 12.0854 21.4125 14.1375 21.4125Z" fill="#B3A8A8"/>
</svg>
