<svg width="48" height="48" viewBox="0 0 48 48" fill="none" xmlns="http://www.w3.org/2000/svg">
<path d="M27.6 45.25H20.4C19.8 45.25 19.2667 45.0666 18.8 44.7C18.3333 44.3333 18.0667 43.85 18 43.25L17.25 38.55C16.8167 38.4166 16.325 38.1916 15.775 37.875C15.225 37.5583 14.7667 37.25 14.4 36.95L10.1 39C9.53334 39.2666 8.95834 39.3 8.375 39.1C7.79167 38.9 7.35 38.5166 7.05 37.95L3.4 31.45C3.06667 30.9166 2.975 30.3583 3.125 29.775C3.275 29.1916 3.58334 28.7166 4.05 28.35L8.05 25.45C8.01667 25.25 7.99167 25.0083 7.975 24.725C7.95834 24.4416 7.95 24.2 7.95 24C7.95 23.8 7.95834 23.5583 7.975 23.275C7.99167 22.9916 8.01667 22.75 8.05 22.55L4.05 19.6C3.58334 19.2333 3.275 18.7583 3.125 18.175C2.975 17.5916 3.06667 17.05 3.4 16.55L7.05 10.05C7.38334 9.54995 7.84167 9.19162 8.425 8.97495C9.00834 8.75828 9.56667 8.78328 10.1 9.04995L14.5 11.05C14.8333 10.7833 15.2667 10.5 15.8 10.2C16.3333 9.89995 16.8167 9.68328 17.25 9.54995L18 4.69995C18.0667 4.09995 18.3333 3.61662 18.8 3.24995C19.2667 2.88328 19.8 2.69995 20.4 2.69995H27.6C28.2 2.69995 28.7333 2.88328 29.2 3.24995C29.6667 3.61662 29.9333 4.09995 30 4.69995L30.75 9.49995C31.1833 9.66662 31.675 9.89162 32.225 10.175C32.775 10.4583 33.2333 10.75 33.6 11.05L37.9 9.04995C38.4333 8.78328 39 8.74995 39.6 8.94995C40.2 9.14995 40.65 9.51662 40.95 10.05L44.65 16.5C44.9833 17.0333 45.075 17.6 44.925 18.2C44.775 18.8 44.45 19.2666 43.95 19.6L39.9 22.45C39.9333 22.6833 39.9667 22.9416 40 23.225C40.0333 23.5083 40.05 23.7666 40.05 24C40.05 24.2333 40.0333 24.4833 40 24.75C39.9667 25.0166 39.9333 25.2666 39.9 25.5L43.95 28.35C44.4167 28.7166 44.725 29.1916 44.875 29.775C45.025 30.3583 44.95 30.9166 44.65 31.45L40.9 37.95C40.6 38.5166 40.1667 38.9 39.6 39.1C39.0333 39.3 38.4667 39.2666 37.9 39L33.55 36.95C33.1833 37.25 32.7417 37.5583 32.225 37.875C31.7083 38.1916 31.2167 38.4166 30.75 38.55L30 43.25C29.9333 43.85 29.6667 44.3333 29.2 44.7C28.7333 45.0666 28.2 45.25 27.6 45.25ZM23.9 30.5C25.7 30.5 27.2333 29.8666 28.5 28.6C29.7667 27.3333 30.4 25.8 30.4 24C30.4 22.2 29.7667 20.6666 28.5 19.4C27.2333 18.1333 25.7 17.5 23.9 17.5C22.1 17.5 20.5667 18.1333 19.3 19.4C18.0333 20.6666 17.4 22.2 17.4 24C17.4 25.8 18.0333 27.3333 19.3 28.6C20.5667 29.8666 22.1 30.5 23.9 30.5ZM23.9 27.5C22.9 27.5 22.0667 27.1583 21.4 26.475C20.7333 25.7916 20.4 24.9666 20.4 24C20.4 23.0333 20.7333 22.2083 21.4 21.525C22.0667 20.8416 22.9 20.5 23.9 20.5C24.8667 20.5 25.6917 20.8416 26.375 21.525C27.0583 22.2083 27.4 23.0333 27.4 24C27.4 24.9666 27.0583 25.7916 26.375 26.475C25.6917 27.1583 24.8667 27.5 23.9 27.5ZM22.2 40.55H25.75L26.5 35C27.6333 34.7333 28.7167 34.3166 29.75 33.75C30.7833 33.1833 31.7 32.45 32.5 31.55L37.8 33.85L39.35 30.9L34.75 27.55C34.8833 26.95 35 26.3583 35.1 25.775C35.2 25.1916 35.25 24.6 35.25 24C35.25 23.4 35.2083 22.8083 35.125 22.225C35.0417 21.6416 34.9167 21.05 34.75 20.45L39.4 17.1L37.8 14.15L32.55 16.45C31.7833 15.5166 30.8833 14.7333 29.85 14.1C28.8167 13.4666 27.7 13.0833 26.5 12.95L25.8 7.44995H22.2L21.55 12.95C20.35 13.15 19.225 13.5583 18.175 14.175C17.125 14.7916 16.2 15.55 15.4 16.45L10.2 14.15L8.6 17.1L13.15 20.4C13.0167 21 12.9 21.6 12.8 22.2C12.7 22.8 12.65 23.4 12.65 24C12.65 24.6 12.7 25.2083 12.8 25.825C12.9 26.4416 13.0167 27.0333 13.15 27.6L8.6 30.9L10.2 33.85L15.4 31.55C16.2333 32.4166 17.175 33.15 18.225 33.75C19.275 34.35 20.3833 34.7833 21.55 35.05L22.2 40.55Z" fill="#402525"/>
</svg>
