<svg width="48" height="48" viewBox="0 0 48 48" fill="none" xmlns="http://www.w3.org/2000/svg">
<path d="M11.7 45.5C10.3983 45.5 9.28958 45.0421 8.37375 44.1263C7.45792 43.2104 7 42.1017 7 40.8V16.3C7 14.9846 7.45792 13.864 8.37375 12.9384C9.28958 12.0128 10.3983 11.55 11.7 11.55H15.9V11.05C15.9667 8.78333 16.8054 6.875 18.4162 5.325C20.0269 3.775 21.9686 3 24.2411 3C26.5137 3 28.4583 3.775 30.075 5.325C31.6917 6.875 32.5333 8.78333 32.6 11.05V11.55H36.8C38.1154 11.55 39.236 12.0128 40.1616 12.9384C41.0872 13.864 41.55 14.9846 41.55 16.3V40.8C41.55 42.1017 41.0872 43.2104 40.1616 44.1263C39.236 45.0421 38.1154 45.5 36.8 45.5H11.7ZM11.7 40.8H36.8V16.3H32.6V19.9C32.6 20.5917 32.3721 21.1646 31.9163 21.6187C31.4604 22.0729 30.9021 22.3 30.2413 22.3C29.5804 22.3 29.025 22.0729 28.575 21.6187C28.125 21.1646 27.9 20.5917 27.9 19.9V16.3H20.6V19.9C20.6 20.5917 20.3721 21.1646 19.9163 21.6187C19.4604 22.0729 18.9021 22.3 18.2413 22.3C17.5804 22.3 17.025 22.0729 16.575 21.6187C16.125 21.1646 15.9 20.5917 15.9 19.9V16.3H11.7V40.8ZM20.65 11.55H27.85V11.05C27.7833 10.1167 27.4067 9.325 26.7202 8.675C26.0336 8.025 25.2086 7.7 24.2452 7.7C23.2817 7.7 22.4583 8.025 21.775 8.675C21.0917 9.325 20.7167 10.1167 20.65 11.05V11.55Z" fill="#402525"/>
</svg>
