<svg width="48" height="48" viewBox="0 0 48 48" fill="none" xmlns="http://www.w3.org/2000/svg">
<g clip-path="url(#clip0_65_1711)">
<path d="M12.6398 30.235C13.6148 30.235 14.5127 29.9291 15.3337 29.3171C16.1546 28.7052 16.7366 27.896 17.0794 26.8894L17.8107 24.659C18.4026 22.9017 18.3189 21.3134 17.5596 19.894C16.8003 18.4747 15.6653 17.765 14.1545 17.765H7.05114L8.04353 26.0551C8.18281 27.2534 8.68917 28.2496 9.5626 29.0438C10.4361 29.8379 11.4618 30.235 12.6398 30.235ZM35.293 30.235C36.452 30.235 37.4631 29.8389 38.326 29.0465C39.1891 28.2542 39.6977 27.2479 39.852 26.0276L40.8966 17.765H33.8935C32.399 17.765 31.2688 18.4747 30.5027 19.894C29.7367 21.3134 29.6322 22.9186 30.1893 24.7097L30.9206 26.8894C31.2212 27.896 31.7817 28.7052 32.6019 29.3171C33.4221 29.9291 34.3191 30.235 35.293 30.235ZM12.6477 35C10.1702 35 8.03482 34.2058 6.24157 32.6175C4.44831 31.0292 3.4124 29.0015 3.13384 26.5346L2.037 17.6636H1.61915C1.13166 17.4946 0.739935 17.2074 0.443961 16.8018C0.147987 16.3963 0 15.9316 0 15.4078C0 14.7151 0.235038 14.1406 0.705114 13.6843C1.17519 13.2281 1.75843 13 2.45484 13H13.7889C15.3826 13 16.9132 13.4173 18.3809 14.2518C19.8485 15.0863 21.0686 16.2742 22.0413 17.8157H26.0109C26.951 16.2611 28.16 15.0699 29.6378 14.2419C31.1156 13.414 32.6574 13 34.2633 13H45.4929C46.185 13 46.7759 13.2281 47.2655 13.6843C47.7552 14.1406 48 14.732 48 15.4585C48 15.9485 47.8433 16.3963 47.5299 16.8018C47.2165 17.2074 46.8161 17.4946 46.3286 17.6636H45.9108L44.8139 26.5346C44.5005 29.0015 43.4385 31.0292 41.6279 32.6175C39.8172 34.2058 37.7131 35 35.3156 35C33.3257 35 31.5125 34.4002 29.876 33.2005C28.2394 32.0008 27.0381 30.404 26.272 28.4101L25.2274 25.5714C25.1578 25.4363 25.1055 25.2842 25.0707 25.1152C25.0359 24.9462 25.0146 24.7942 25.0069 24.659H22.9293C22.9177 24.7979 22.8974 24.9509 22.8683 25.118C22.8393 25.2851 22.79 25.4363 22.7203 25.5714L21.7802 28.3594C21.049 30.3871 19.8438 32.0008 18.1646 33.2005C16.4854 34.4002 14.6464 35 12.6477 35Z" fill="#402525"/>
</g>
<defs>
<clipPath id="clip0_65_1711">
<rect width="48" height="22" fill="white" transform="translate(0 13)"/>
</clipPath>
</defs>
</svg>
